Coordinates
version=1
nRows=14
nColumns=33
inDegrees=yes

Units are S.I. units (second, meters, Newtons, ...)
Angles are in degrees.

endheader
time	ground_thorax_rot_x	ground_thorax_rot_y	ground_thorax_rot_z	ground_thorax_tx	ground_thorax_ty	ground_thorax_tz	clav_prot_r	clav_elev_r	scapula_abduction_r	scapula_elevation_r	scapula_upward_rot_r	scapula_winging_r	shoulder_elv_r	plane_of_elev_r	axial_rot_r	elbow_flexion_r	pro_sup_r	wrist_flex_r	wrist_dev_r	clav_prot_l	clav_elev_l	scapula_abduction_l	scapula_elevation_l	scapula_upward_rot_l	scapula_winging_l	shoulder_elv_l	plane_of_elev_l	axial_rot_l	elbow_flexion_l	pro_sup_l	wrist_flex_l	wrist_dev_l
      5.15000000	     23.18345618	     34.25580099	     51.38350405	    -80.47231722	    775.54914322	      9.68755581	      7.21783311	     42.42731658	     40.25257298	     41.64243609	    -10.49555862	   2414.80896155	  -3543.37638268	     18.89164452	   -179.99999979	   1087.50676494	   -124.27760028	     13.42231343	      9.88601106	      7.90120334	    -45.00000000	    -35.93902971	     45.00000000	    -45.00000000	  -2785.66797106	   -461.40020792	    143.96859455	    133.16403216	   2888.08475745	     24.59301147	      9.26770253	    -18.65927973
      5.16000000	     22.79519149	     34.41517029	     52.00513183	    -77.83691660	    775.27850623	      9.78182873	      7.28103934	     42.17470368	     39.94048841	     41.49031829	    -11.24797542	   2415.32649718	  -3543.38111475	     18.87952457	   -179.99999979	   1087.21845758	   -123.07637946	     13.43704645	      9.73274820	      7.93499639	    -45.00000000	    -35.93476002	     45.00000000	    -45.00000000	  -2785.58255951	   -461.56907162	    144.12109057	    132.64184763	   2887.94445512	     25.13417380	      9.20649115	    -18.64274095
      5.17000000	     22.56133386	     34.46161877	     52.36713374	    -75.44308569	    775.08709890	      9.87131982	      7.48212573	     42.03985721	     39.76740459	     41.33793884	    -11.67178041	   2415.56573853	  -3543.47964919	     18.92852775	   -179.99999979	   1087.00292468	   -121.76533262	     13.40176373	      9.57726214	      7.84592771	    -45.00000000	    -35.87808653	     45.00000000	    -45.00000000	  -2785.62844953	   -461.63891222	    144.23419241	    132.21545601	   2887.82921396	     25.66116731	      9.13874749	    -18.63324098
      5.18000000	     22.36642862	     34.52292360	     52.70514259	    -73.28165585	    774.95961123	      9.95627891	      7.54609104	     41.89202785	     39.62437051	     41.14636218	    -12.03164600	   2415.78095696	  -3543.44861852	     19.00652294	   -179.99999979	   1086.80795765	   -120.47270085	     13.37891733	      9.45130597	      7.82756451	    -45.00000000	    -35.86876817	     45.00000000	    -45.00000000	  -2785.62436395	   -461.77075741	    144.33980689	    132.01681511	   2887.81930964	     26.11040088	      9.09179203	    -18.64684997
      5.19000000	     22.11921895	     34.56639110	     53.06675471	    -71.34306846	    774.88183575	     10.03679675	      7.46954289	     41.58270240	     39.46353255	     40.99971322	    -12.34691998	   2416.08479598	  -3543.45450792	     18.91219729	   -179.99999979	   1086.55777515	   -119.36159953	     13.40674382	      9.33599048	      7.88599583	    -45.00000000	    -35.89481085	     45.00000000	    -45.00000000	  -2785.57603529	   -461.95384515	    144.38081427	    132.00066351	   2887.63438780	     26.47531838	      9.05616114	    -18.60743199
      5.20000000	     22.10405249	     34.49444220	     53.06938604	    -69.61587733	    774.84134702	     10.11309602	      7.64954937	     41.62171336	     39.53447598	     40.80288370	    -12.30743569	   2415.95876526	  -3543.52605572	     19.02012101	   -179.99999979	   1086.47968372	   -118.13054591	     13.36309553	      9.25224909	      7.72213957	    -45.00000000	    -35.81349589	     45.00000000	    -45.00000000	  -2785.70808532	   -461.97617568	    144.41217713	    131.98966078	   2887.66351110	     26.84370400	      9.01396139	    -18.62911884
      5.21000000	     21.96128590	     34.48894922	     53.21285799	    -68.08476457	    774.82789392	     10.18607498	      7.54819533	     41.38510522	     39.49624718	     40.64144611	    -12.37712978	   2416.04342449	  -3543.55419736	     18.95530028	   -179.99999979	   1086.31930593	   -117.09233828	     13.38433716	      9.17754165	      7.76201240	    -45.00000000	    -35.85921055	     45.00000000	    -45.00000000	  -2785.74002460	   -462.10664361	    144.38976319	    132.22565316	   2887.48366561	     27.12445279	      9.01851966	    -18.59728931
      5.22000000	     21.96766349	     34.41659117	     53.16243344	    -66.73212912	    774.83322275	     10.25819884	      7.58569223	     41.32650657	     39.58273912	     40.45618909	    -12.20950844	   2415.91396298	  -3543.59427393	     18.97749924	   -179.99999979	   1086.23649546	   -116.07039994	     13.37752029	      9.12148289	      7.67544118	    -45.00000000	    -35.82473396	     45.00000000	    -45.00000000	  -2785.84170163	   -462.17035412	    144.37603650	    132.46098304	   2887.45378332	     27.37260354	      9.00560546	    -18.59908823
      5.23000000	     21.85386581	     34.40802239	     53.26502597	    -65.54187271	    774.85121861	     10.32835738	      7.45428664	     41.05176942	     39.55032584	     40.30804610	    -12.16884625	   2415.98578131	  -3543.60277475	     18.88275724	   -179.99999979	   1086.10156653	   -115.26177710	     13.40694710	      9.06384085	      7.71887052	    -45.00000000	    -35.89223686	     45.00000000	    -45.00000000	  -2785.84303109	   -462.30374161	    144.34945203	    132.79826931	   2887.31721861	     27.53906501	      9.01291267	    -18.56688926
      5.24000000	     21.59524811	     34.41876729	     53.48554283	    -64.49710876	    774.87721519	     10.39560801	      7.48910852	     40.46013533	     39.09002033	     40.14930425	    -11.94475147	   2416.25234750	  -3543.67082450	     18.92815076	   -179.99999979	   1086.13627431	   -114.68318722	     13.32080504	      8.98194808	      7.67554808	    -45.00000000	    -36.09047863	     45.00000000	    -45.00000000	  -2785.84984277	   -462.35018810	    144.47824202	    133.16516194	   2887.38240742	     27.60262371	      8.92224546	    -18.54223359
      5.25000000	     21.47360087	     34.50680568	     53.57271845	    -63.58451108	    774.90742801	     10.45713196	      7.29989635	     40.74648973	     38.97387365	     39.99523529	    -12.18530835	   2416.30014979	  -3543.67239389	     19.06527210	   -179.99999979	   1086.07285818	   -114.19908066	     13.47472861	      9.06699495	      7.80432407	    -45.00000000	    -36.06433175	     45.00000000	    -45.00000000	  -2785.82739997	   -462.41573876	    144.41361241	    133.25427402	   2887.32572361	     27.70532346	      9.07589085	    -18.58399058
      5.26000000	     21.32736989	     34.53262199	     53.75850265	    -62.79698060	    774.93809862	     10.51236005	      7.38185348	     40.47837270	     38.96754527	     39.98097307	    -12.10049004	   2416.33363865	  -3543.76724721	     18.95018068	   -179.99999979	   1086.03696458	   -113.71321181	     13.39783609	      8.97333429	      7.74676919	    -45.00000000	    -36.12934506	     45.00000000	    -45.00000000	  -2785.90480487	   -462.50794099	    144.54749658	    133.28342409	   2887.19503759	     27.79732786	      9.01334824	    -18.52928097
      5.27000000	     21.45258856	     34.40798432	     53.51904280	    -62.12482964	    774.96599884	     10.55852372	      7.39880495	     40.56721010	     39.47530562	     39.77205866	    -12.06733956	   2415.85776159	  -3543.80716316	     18.99042668	   -179.99999979	   1086.00147293	   -113.24449537	     13.57319533	      9.07105842	      7.71385785	    -45.00000000	    -35.95583556	     45.00000000	    -45.00000000	  -2785.90897344	   -462.52095788	    144.34201962	    133.36356148	   2887.15473719	     27.85799482	      9.11307526	    -18.55374630
      5.28000000	     21.47634822	     34.40921529	     53.34413841	    -61.56403594	    774.98819215	     10.59592391	      7.42213545	     40.40710120	     39.45492160	     39.66560044	    -11.48653206	   2415.74224919	  -3543.77957010	     18.85243344	   -179.99999979	   1086.01397843	   -112.72817930	     13.43027472	      8.95404545	      7.53944552	    -45.00000000	    -35.99746801	     45.00000000	    -45.00000000	  -2786.15402205	   -462.58841532	    144.42733285	    133.64895061	   2887.10932735	     27.87583886	      9.03826479	    -18.51485287
